<svg width="75" height="76" viewBox="0 0 75 76" fill="none" xmlns="http://www.w3.org/2000/svg">
<path d="M75 38.0773C75 58.7086 58.2107 75.4335 37.5 75.4335C16.7893 75.4335 0 58.7086 0 38.0773C0 17.4461 16.7893 0.721191 37.5 0.721191C58.2107 0.721191 75 17.4461 75 38.0773Z" fill="#B5E1E9"/>
<path fill-rule="evenodd" clip-rule="evenodd" d="M59.8447 48.4334C59.8447 34.5835 54.2107 23.3574 54.2107 23.3574C48.5767 18.7121 43.2165 18.8412 43.2165 18.8412L42.6688 19.5294C49.32 21.766 52.4109 24.9919 52.4109 24.9919C43.117 19.3921 32.1997 19.3911 23.1844 23.7445C21.7368 24.4757 20.876 24.9919 20.876 24.9919C20.876 24.9919 24.1234 21.5939 31.166 19.3573L30.7747 18.8412C30.7747 18.8412 25.4145 18.7121 19.7805 23.3574C19.7805 23.3574 14.1465 34.5835 14.1465 48.4334C14.1465 48.4334 17.433 54.6701 26.0797 54.9712C26.0797 54.9712 27.5273 53.0357 28.7011 51.4012C23.7322 49.7667 21.8542 46.3258 21.8542 46.3258C22.2903 46.6614 22.9409 47.0724 23.2651 47.2771L23.2652 47.2772C23.3688 47.3426 23.439 47.387 23.4583 47.4011C30.0622 51.4667 39.4428 52.7988 47.8724 48.9065C49.2418 48.3474 50.7677 47.5301 52.3718 46.3688C52.3718 46.3688 50.4156 49.8958 45.2902 51.4872C46.4639 53.1217 47.8724 54.9712 47.8724 54.9712C56.5191 54.6701 59.8447 48.4334 59.8447 48.4334ZM47.9562 39.6581C47.9562 42.2818 46.1955 44.4324 43.9654 44.4324C41.7744 44.4324 39.9746 42.2818 39.9746 39.6581C39.9746 37.0345 41.7352 34.8839 43.9654 34.8839C46.1955 34.8839 47.9562 37.0345 47.9562 39.6581ZM25.6973 39.6582C25.6973 37.0345 27.4579 34.8839 29.688 34.8839C31.9182 34.8839 33.7179 37.0345 33.6788 39.6582C33.6788 42.2819 31.9182 44.4325 29.688 44.4325C27.497 44.4325 25.6973 42.2819 25.6973 39.6582Z" fill="white"/>
</svg>
