<svg width="24" height="24" viewBox="0 0 24 24" fill="none" xmlns="http://www.w3.org/2000/svg">
<path fill-rule="evenodd" clip-rule="evenodd" d="M24 2.5306V21.0884C24 22.4855 22.8482 23.619 21.4286 23.619H16.8589V14.2768H20.1054L20.5714 10.7129H16.8589V8.43534C16.8589 7.40201 17.1482 6.70082 18.6536 6.70082H20.5714V3.51648C20.2393 3.47431 19.1036 3.37414 17.775 3.37414C15.0107 3.37414 13.1143 5.03484 13.1143 8.08738V10.7182H9.85714V14.2821H13.1196V23.619H2.57143C1.15179 23.619 0 22.4855 0 21.0884V2.5306C0 1.1335 1.15179 0 2.57143 0H21.4286C22.8482 0 24 1.1335 24 2.5306Z" fill="white"/>
</svg>
