<svg width="156" height="156" viewBox="0 0 156 156" fill="none" xmlns="http://www.w3.org/2000/svg">
<g clip-path="url(#clip0)">
<path d="M72.7714 58.9779L72.4732 61.252L74.8405 65.036L75.1387 62.7619C75.2319 62.0349 75.0828 61.3452 74.7286 60.7674L72.3613 56.9834C72.7155 57.5612 72.8646 58.2323 72.7714 58.9779Z" fill="url(#paint0_linear)"/>
<path d="M122.952 68.1863L120.585 64.4023C120.976 65.0175 121.144 65.7817 121.032 66.5833L115.571 107.182C115.31 109.176 113.408 110.723 111.339 110.649L49.342 108.486C48.1118 108.449 47.1052 107.834 46.5273 106.939L48.8946 110.723C49.4539 111.618 50.4791 112.233 51.7093 112.27L113.707 114.451C115.776 114.526 117.677 112.96 117.938 110.984L123.418 70.3672C123.53 69.547 123.344 68.8014 122.952 68.1863Z" fill="url(#paint1_linear)"/>
<path d="M69.8081 55.5855C71.6908 55.66 73.0142 57.1699 72.7719 58.978L72.4737 61.2521L117.788 62.8365C119.857 62.9111 121.311 64.5887 121.05 66.5832L115.57 107.182C115.309 109.176 113.408 110.723 111.339 110.649L49.3412 108.486C47.2721 108.412 45.8182 106.734 46.0791 104.74L52.3422 58.251C52.5846 56.4429 54.3181 55.0262 56.2008 55.0822L69.8081 55.5855Z" fill="url(#paint2_linear)"/>
<path d="M60.5058 41.1761L60.2075 43.4502L62.5749 47.2342L62.8731 44.9601C62.9663 44.2331 62.8172 43.5434 62.463 42.9656L60.0957 39.1816C60.4312 39.7408 60.599 40.4305 60.5058 41.1761Z" fill="url(#paint3_linear)"/>
<path d="M57.5425 37.7651C59.4252 37.8396 60.7486 39.3495 60.5063 41.1576L60.208 43.4317L105.522 45.0161C107.591 45.0907 109.045 46.7683 108.784 48.7628L103.304 89.3798C103.043 91.3743 101.142 92.9215 99.0729 92.8469L37.0755 90.6847C35.0065 90.6101 33.5525 88.9325 33.8135 86.938L40.0766 40.4492C40.3189 38.6411 42.0525 37.2245 43.9351 37.2804L57.5425 37.7651Z" fill="url(#paint4_linear)"/>
<path d="M110.686 50.366L108.318 46.582C108.71 47.1972 108.878 47.9614 108.766 48.7629L103.286 89.38C103.025 91.3745 101.123 92.9216 99.0542 92.8471L37.0569 90.6848C35.8266 90.6475 34.82 90.0324 34.2422 89.1377L36.6095 92.9216C37.1687 93.8164 38.1939 94.4315 39.4242 94.4688L101.422 96.631C103.491 96.7056 105.392 95.1398 105.653 93.164L111.133 52.5469C111.245 51.7454 111.077 50.9811 110.686 50.366Z" fill="url(#paint5_linear)"/>
<path d="M109.866 8.61191C110.499 8.94743 110.033 9.91672 109.362 9.61848C106.044 8.12726 102.633 6.897 99.1476 5.92771C90.4426 3.52312 81.3275 2.8148 72.4734 3.78409C63.6007 4.75338 54.9889 7.40029 47.2346 11.5571C39.4802 15.6952 32.5834 21.3245 26.9726 27.9791C21.3806 34.6337 17.112 42.2761 14.4278 50.4219C11.7436 58.5304 10.6624 67.1236 11.1844 75.5489C11.7063 83.9743 13.8313 92.2506 17.3916 99.7626C20.9332 107.256 25.9102 113.985 31.8937 119.577C34.9134 122.392 35.1184 127.257 32.2851 130.239C29.4704 133.203 24.7917 133.352 21.8093 130.556C21.6788 130.444 21.567 130.333 21.4551 130.202L21.4179 130.165C17.9694 126.493 14.8751 122.485 12.1909 118.254C9.50675 114.004 7.23265 109.53 5.40591 104.87C1.75242 95.6245 -0.0743205 85.6892 0.000240405 75.8285C0.0561611 65.9679 2.01338 56.2004 5.68551 47.1599C9.35763 38.1194 14.7633 29.8804 21.4365 22.9462C28.1283 16.0307 36.0691 10.42 44.7554 6.50556C53.4418 2.62839 62.8178 0.447488 72.1938 0.0560433C81.5699 -0.316761 90.9645 1.08126 99.7068 4.15689C103.211 5.36851 106.604 6.87837 109.866 8.61191Z" fill="url(#paint6_linear)"/>
<path d="M46.2085 146.605C45.5747 146.27 46.0408 145.301 46.7118 145.599C50.0298 147.09 53.4409 148.32 56.9266 149.271C65.6316 151.676 74.7467 152.365 83.6008 151.396C92.4549 150.427 101.067 147.761 108.821 143.604C116.575 139.448 123.454 133.818 129.064 127.182C134.656 120.528 138.925 112.885 141.591 104.74C144.275 96.6124 145.356 88.0192 144.834 79.5939C144.312 71.1685 142.187 62.8922 138.627 55.3802C135.085 47.8868 130.127 41.1577 124.125 35.5657C121.105 32.751 120.9 27.8859 123.733 24.9035C126.548 21.9397 131.227 21.7905 134.209 24.5866C134.339 24.6984 134.451 24.8103 134.563 24.9407L134.6 24.978C138.049 28.6501 141.143 32.6391 143.827 36.8891C146.512 41.1204 148.786 45.6127 150.612 50.2542C154.266 59.537 156.074 69.4722 156.018 79.3329C155.962 89.1936 154.024 98.9611 150.351 107.983C146.698 117.005 141.292 125.262 134.619 132.197C131.282 135.645 127.629 138.795 123.715 141.554C119.8 144.313 115.643 146.699 111.319 148.637C102.651 152.552 93.2751 154.733 83.9177 155.124C74.5417 155.515 65.147 154.136 56.4047 151.06C52.8631 149.83 49.4519 148.339 46.2085 146.605Z" fill="url(#paint7_linear)"/>
</g>
<defs>
<linearGradient id="paint0_linear" x1="52.3554" y1="60.0761" x2="119.49" y2="63.0513" gradientUnits="userSpaceOnUse">
<stop stop-color="#898CD6"/>
<stop offset="1" stop-color="#2BC5E8"/>
</linearGradient>
<linearGradient id="paint1_linear" x1="51.1732" y1="86.7861" x2="118.308" y2="89.7612" gradientUnits="userSpaceOnUse">
<stop stop-color="#898CD6"/>
<stop offset="1" stop-color="#2BC5E8"/>
</linearGradient>
<linearGradient id="paint2_linear" x1="45.8941" y1="81.9607" x2="116.829" y2="83.6804" gradientUnits="userSpaceOnUse">
<stop stop-color="#A8D7FF"/>
<stop offset="1" stop-color="#E0F1FF"/>
</linearGradient>
<linearGradient id="paint3_linear" x1="35.95" y1="42.1895" x2="106.835" y2="45.0353" gradientUnits="userSpaceOnUse">
<stop stop-color="#898CD6"/>
<stop offset="1" stop-color="#2BC5E8"/>
</linearGradient>
<linearGradient id="paint4_linear" x1="34.3468" y1="64.1581" x2="104.422" y2="65.8778" gradientUnits="userSpaceOnUse">
<stop stop-color="#A8D7FF"/>
<stop offset="1" stop-color="#E0F1FF"/>
</linearGradient>
<linearGradient id="paint5_linear" x1="34.8756" y1="68.9612" x2="105.761" y2="71.807" gradientUnits="userSpaceOnUse">
<stop stop-color="#898CD6"/>
<stop offset="1" stop-color="#2BC5E8"/>
</linearGradient>
<linearGradient id="paint6_linear" x1="20.1175" y1="18.5773" x2="80.8763" y2="86.3968" gradientUnits="userSpaceOnUse">
<stop stop-color="#898CD6"/>
<stop offset="1" stop-color="#2BC5E8"/>
</linearGradient>
<linearGradient id="paint7_linear" x1="135.89" y1="136.601" x2="75.1314" y2="68.7816" gradientUnits="userSpaceOnUse">
<stop stop-color="#898CD6"/>
<stop offset="1" stop-color="#2BC5E8"/>
</linearGradient>
<clipPath id="clip0">
<rect width="156" height="155.18" fill="white"/>
</clipPath>
</defs>
</svg>
