<svg width="75" height="76" viewBox="0 0 75 76" fill="none" xmlns="http://www.w3.org/2000/svg">
<path fill-rule="evenodd" clip-rule="evenodd" d="M25.092 60.801C25.092 61.1134 24.7443 61.3633 24.3058 61.3633C23.8068 61.4101 23.459 61.1602 23.459 60.801C23.459 60.4887 23.8068 60.2388 24.2453 60.2388C24.6989 60.1919 25.092 60.4418 25.092 60.801ZM20.3884 60.0984C20.2825 60.4106 20.5849 60.7697 21.0386 60.8633C21.4317 61.0194 21.8854 60.8633 21.9761 60.5511C22.0668 60.2389 21.7795 59.8799 21.3259 59.7394C20.9327 59.6301 20.4942 59.7862 20.3884 60.0984ZM27.0653 59.8329C26.6268 59.9422 26.3244 60.2388 26.3697 60.5979C26.4151 60.9101 26.8082 61.1131 27.2619 61.0038C27.7004 60.8945 28.0028 60.5979 27.9574 60.2856C27.9121 59.989 27.5038 59.7861 27.0653 59.8329ZM37.0161 0C16.0433 0 0 16.4415 0 38.098C0 55.4139 10.5544 70.2316 25.63 75.4466C27.5655 75.8058 28.246 74.5723 28.246 73.5573C28.246 72.5893 28.2006 67.2493 28.2006 63.9704C28.2006 63.9704 17.6159 66.3125 15.3931 59.3174C15.3931 59.3174 13.6694 54.7738 11.1895 53.6027C11.1895 53.6027 7.72681 51.1513 11.4315 51.1982C11.4315 51.1982 15.1966 51.5104 17.2681 55.2266C20.5796 61.2535 26.129 59.5204 28.2913 58.4899C28.6391 55.9916 29.622 54.2585 30.7107 53.228C22.2581 52.2599 13.7298 50.9952 13.7298 35.9746C13.7298 31.6807 14.879 29.526 17.2984 26.7779C16.9052 25.763 15.62 21.5785 17.6915 16.1761C20.8518 15.1611 28.125 20.3918 28.125 20.3918C31.1492 19.5174 34.4002 19.0646 37.621 19.0646C40.8417 19.0646 44.0927 19.5174 47.1169 20.3918C47.1169 20.3918 54.3901 15.1455 57.5504 16.1761C59.622 21.5941 58.3367 25.763 57.9436 26.7779C60.3629 29.5416 61.8448 31.6963 61.8448 35.9746C61.8448 51.042 52.9385 52.2443 44.4859 53.228C45.877 54.4615 47.0565 56.8036 47.0565 60.4728C47.0565 65.7347 47.0111 72.2458 47.0111 73.5261C47.0111 74.541 47.7067 75.7745 49.627 75.4154C64.748 70.2316 75 55.4139 75 38.098C75 16.4415 57.9889 0 37.0161 0ZM14.6942 53.8524C14.4976 54.0085 14.543 54.3675 14.8 54.6641C15.0419 54.9139 15.3897 55.0232 15.5863 54.8202C15.7829 54.6641 15.7375 54.3051 15.4804 54.0085C15.2385 53.7587 14.8907 53.6494 14.6942 53.8524ZM13.0649 52.5878C12.9591 52.7908 13.1103 53.0407 13.4127 53.1969C13.6546 53.353 13.957 53.3062 14.0629 53.0875C14.1687 52.8845 14.0175 52.6347 13.7151 52.4785C13.4127 52.3848 13.1708 52.4316 13.0649 52.5878ZM17.9601 58.1466C17.7181 58.3496 17.8089 58.8179 18.1566 59.1145C18.5044 59.4736 18.9429 59.5204 19.1395 59.2706C19.3361 59.0677 19.2454 58.5993 18.9429 58.3027C18.6103 57.9437 18.1566 57.8968 17.9601 58.1466ZM16.242 55.8512C16.0001 56.0073 16.0001 56.4133 16.242 56.7724C16.4839 57.1315 16.8922 57.2877 17.0888 57.1315C17.3307 56.9285 17.3307 56.5226 17.0888 56.1635C16.8771 55.8043 16.4839 55.6482 16.242 55.8512Z" fill="#B5E1E9"/>
</svg>
