<svg width="118" height="94" viewBox="0 0 118 94" fill="none" xmlns="http://www.w3.org/2000/svg">
<g clip-path="url(#clip0)">
<path d="M106.774 86.0361C112.974 86.0361 118 81.0438 118 74.8855C118 68.7272 112.974 63.7349 106.774 63.7349C100.575 63.7349 95.5488 68.7272 95.5488 74.8855C95.5488 81.0438 100.575 86.0361 106.774 86.0361Z" fill="#FB606E"/>
<path d="M18.5206 36.7914C28.7471 36.7914 37.0373 28.5563 37.0373 18.3979C37.0373 8.23944 28.7471 0.00439453 18.5206 0.00439453C8.29412 0.00439453 0.00390625 8.23944 0.00390625 18.3979C0.00390625 28.5563 8.29412 36.7914 18.5206 36.7914Z" fill="url(#paint0_linear)"/>
<path d="M9.70677 53.0299C12.0398 53.0299 13.9311 51.1512 13.9311 48.8337C13.9311 46.5162 12.0398 44.6375 9.70677 44.6375C7.37373 44.6375 5.48242 46.5162 5.48242 48.8337C5.48242 51.1512 7.37373 53.0299 9.70677 53.0299Z" fill="#D2F2F8"/>
<path d="M103.666 56.8958C109.694 31.8126 97.1226 7.33894 75.5875 2.23234C54.0523 -2.87426 31.708 13.32 25.6801 38.4032C19.6522 63.4864 32.2233 87.96 53.7585 93.0666C75.2937 98.1732 97.638 81.979 103.666 56.8958Z" fill="#7BAFDA"/>
<path d="M72.2496 1.42932C68.5313 0.546363 64.5974 0.275357 60.5403 0.699351C38.182 3.03788 20.4046 25.5926 20.8358 51.0848C21.1878 71.9479 33.6277 88.3088 50.3886 92.2822L53.7417 93.0777C36.9807 89.1044 24.5409 72.7434 24.1889 51.8803C23.7576 26.3882 41.5307 3.82904 63.8933 1.49489C67.9549 1.07089 71.8844 1.3419 75.6027 2.22486L72.2496 1.42932Z" fill="#597F9C"/>
<path d="M64.0951 4.98735C84.5876 2.84989 101.516 20.0501 101.912 43.4135C102.229 62.0955 91.879 79.0552 77.239 86.1932C76.997 86.2719 76.777 86.32 76.5701 86.3418C75.1972 86.4861 74.6692 85.4108 74.656 84.4317C74.634 83.0373 74.5988 78.4783 74.502 72.8177C74.436 68.8706 73.2039 66.4228 71.853 65.247C80.0948 63.3368 88.7151 58.8521 88.4423 42.6092C88.3631 37.989 86.8626 34.3697 84.4336 31.6553C84.7988 30.5494 86.0001 26.1128 83.8791 20.5003C83.8659 20.4959 83.6107 20.4304 83.0519 20.4872C81.7098 20.6271 78.6955 21.51 73.7583 25.8986C70.7793 25.2691 67.5934 25.1336 64.4384 25.444C61.2877 25.7893 58.1195 26.5892 55.1756 27.835C50.102 24.4911 47.0658 24.2419 45.7236 24.3818C45.1648 24.4386 44.9096 24.561 44.8964 24.5654C42.9822 30.6019 44.3243 34.7719 44.7248 35.7947C42.4014 39.0031 41.0153 42.9283 41.0945 47.5485C41.3673 63.7565 50.0932 66.4796 58.3527 66.6895C57.3098 67.8565 56.3813 69.8235 56.0909 72.5904C55.1624 73.163 53.6091 73.9586 51.8621 74.1421C49.6532 74.3738 47.145 73.622 45.2352 70.2038C45.134 70.0115 43.2066 66.3485 39.4751 66.4403C39.1979 66.4709 35.9901 66.8556 39.2639 69.0367C39.3871 69.0892 41.7193 70.0814 43.4883 74.7978C43.5719 75.0644 45.1736 80.1524 52.091 79.4311C53.2615 79.3088 54.586 79.0115 56.0733 78.487C56.1481 82.0188 56.2405 85.3496 56.2581 86.3549C56.2757 87.3341 55.7697 88.5143 54.3923 88.6585C54.1987 88.6804 53.9875 88.6803 53.7543 88.6541C38.9163 84.6021 28.0166 69.8541 27.7042 51.1678C27.3125 27.8 43.6071 7.1248 64.0951 4.98735Z" fill="url(#paint1_linear)"/>
</g>
<defs>
<linearGradient id="paint0_linear" x1="18.6643" y1="35.3657" x2="18.352" y2="-1.73216" gradientUnits="userSpaceOnUse">
<stop stop-color="#ACE9F6"/>
<stop offset="1" stop-color="#49B1E6"/>
</linearGradient>
<linearGradient id="paint1_linear" x1="60.0132" y1="-0.0110985" x2="69.4218" y2="94.0123" gradientUnits="userSpaceOnUse">
<stop stop-color="#7DB2E0"/>
<stop offset="0.1474" stop-color="#A3C9E9"/>
<stop offset="0.3049" stop-color="#C4DCF1"/>
<stop offset="0.4671" stop-color="#DEEBF7"/>
<stop offset="0.6337" stop-color="#F0F6FC"/>
<stop offset="0.8075" stop-color="#FBFDFE"/>
<stop offset="1" stop-color="white"/>
</linearGradient>
<clipPath id="clip0">
<rect width="118" height="94" fill="white"/>
</clipPath>
</defs>
</svg>
