<svg width="24" height="24" viewBox="0 0 24 24" fill="none" xmlns="http://www.w3.org/2000/svg">
<path fill-rule="evenodd" clip-rule="evenodd" d="M22 0H1.68702C0.75625 0 0 0.754649 0 1.68104V21.635C0 22.5614 0.75625 23.316 1.68702 23.316H22C22.9308 23.316 23.6923 22.5614 23.6923 21.635V1.68104C23.6923 0.754649 22.9308 0 22 0ZM7.16057 19.9852H3.64904V8.85791H7.16586V19.9852H7.16057ZM5.4043 7.3385C4.27786 7.3385 3.36824 6.43813 3.36824 5.33478C3.36824 4.23143 4.27786 3.33105 5.4043 3.33105C6.52546 3.33105 7.44036 4.23143 7.44036 5.33478C7.44036 6.44333 6.53075 7.3385 5.4043 7.3385ZM20.3228 19.9851H16.8112V14.5724C16.8112 13.2817 16.7848 11.6215 14.9867 11.6215C13.1569 11.6215 12.8766 13.0267 12.8766 14.4787V19.9851H9.36508V8.85787H12.7338V10.3776H12.7814C13.2521 9.50323 14.3997 8.58203 16.1079 8.58203C19.6617 8.58203 20.3228 10.8876 20.3228 13.8854V19.9851Z" fill="white"/>
</svg>
