<svg width="1440" height="950" viewBox="0 0 1440 950" fill="none" xmlns="http://www.w3.org/2000/svg">
<path d="M-157 46.3826L-111.119 30.7448C-93.6722 24.7875 -74.4339 27.6984 -59.5233 38.5298C-56.2775 40.8654 -51.9835 41.1023 -48.501 39.0714L-7.7928 15.4115C17.6667 0.619863 47.9274 -3.64501 76.4637 3.56466L168.936 26.8522C178.741 29.3231 189.121 28.0031 197.98 23.0951C218.74 11.6882 243.016 8.50649 265.973 14.193L824.595 121.086C841.805 124.369 859.454 124.437 876.698 121.255C890.932 118.615 905.505 118.682 919.705 121.39L1441 221.141L1441 949.043L-157 947.046L-157 46.3826Z" fill="url(#paint0_linear)"/>
<path opacity="0.5" d="M-109.158 30.0671L-157 46.382V558.979H124.475C-64.967 417.494 -125.218 121.796 -105.067 97.5943L-95.4643 76.2022C-91.6099 67.6386 -95.1262 57.5519 -103.477 53.2193C-109.631 50.0376 -110.341 41.5417 -104.796 37.3783L-91.9142 27.6977C-97.5606 27.5962 -103.308 28.3747 -109.158 30.0671Z" fill="url(#paint1_linear)"/>
<path opacity="0.46" d="M196.256 24.0077L65.2056 95.6305C59.2549 98.9138 51.9518 98.5076 46.4068 94.6151L24.6327 79.4172C18.4791 75.1185 10.8717 73.4599 3.5009 74.78C-2.85553 75.9308 -9.41483 74.4077 -14.6555 70.5828L-59.252 38.6301C-59.252 38.6301 -54.0789 42.3534 -48.4663 39.0363C-42.6847 35.6176 -9.9558 16.0872 -9.9558 16.0872C16.9238 0.449378 47.9959 -4.32322 78.9666 4.13883C78.9666 4.13883 162.412 25.1924 168.971 26.8171C184.152 30.642 196.256 24.0077 196.256 24.0077Z" fill="#5D6AC6"/>
<path opacity="0.5" d="M246.059 104.059C289.067 82.396 298.365 66.3181 260.564 54.4713C227.159 44.0122 203.999 38.1903 229.763 12.3979C211.809 15.0381 199.029 22.4847 199.029 22.4847L65.9493 95.2245C63.4811 96.6461 60.3029 97.9323 56.3132 97.8646C56.3132 97.8646 21.0147 123.251 33.5247 143.898C46.1024 164.647 79.5412 194.84 96.9538 257.865C96.9876 257.831 124.476 165.29 246.059 104.059Z" fill="url(#paint2_linear)"/>
<path d="M-157 276.888C-157 276.888 127.349 162.278 419.474 276.888C711.599 391.498 794.673 205.265 1102.89 291.206C1411.11 377.146 1326.19 947.543 1326.19 947.543H-191L-157 276.888Z" fill="url(#paint3_radial)"/>
<rect y="233.043" width="1440" height="716" fill="url(#paint4_linear)"/>
<defs>
<linearGradient id="paint0_linear" x1="-157" y1="280.581" x2="1441.01" y2="280.581" gradientUnits="userSpaceOnUse">
<stop offset="0.0726325" stop-color="#2FBEE3"/>
<stop offset="0.6224" stop-color="#7F83CE"/>
</linearGradient>
<linearGradient id="paint1_linear" x1="-14.3123" y1="48.484" x2="-17.8936" y2="513.539" gradientUnits="userSpaceOnUse">
<stop offset="0.00169477" stop-color="#898CD6"/>
<stop offset="1" stop-color="#2484C6" stop-opacity="0"/>
</linearGradient>
<linearGradient id="paint2_linear" x1="160.398" y1="-38.4544" x2="153.683" y2="296.921" gradientUnits="userSpaceOnUse">
<stop offset="0.0779643" stop-color="#597ED1"/>
<stop offset="1" stop-color="#2484C6" stop-opacity="0"/>
</linearGradient>
<radialGradient id="paint3_radial" cx="0" cy="0" r="1" gradientUnits="userSpaceOnUse" gradientTransform="translate(255.99 441.659) scale(585.165 521.373)">
<stop offset="0.00169477" stop-color="#3B83C1"/>
<stop offset="1" stop-color="#2484C6" stop-opacity="0"/>
</radialGradient>
<linearGradient id="paint4_linear" x1="628" y1="258.043" x2="588.84" y2="849.302" gradientUnits="userSpaceOnUse">
<stop stop-color="#3979B8" stop-opacity="0"/>
<stop offset="1" stop-color="#65C0D1"/>
</linearGradient>
</defs>
</svg>
