<svg width="75" height="76" viewBox="0 0 75 76" fill="none" xmlns="http://www.w3.org/2000/svg">
<path d="M75 38.0696C75 58.7008 58.2107 75.4258 37.5 75.4258C16.7893 75.4258 0 58.7008 0 38.0696C0 17.4383 16.7893 0.713379 37.5 0.713379C58.2107 0.713379 75 17.4383 75 38.0696Z" fill="#B5E1E9"/>
<g clip-path="url(#clip0)">
<path d="M40.1115 37.1681C40.5925 36.9221 41.1283 36.792 41.6843 36.792C42.6056 36.792 43.4717 37.1497 44.1247 37.7992L45.5302 36.3938C49.0086 37.613 53.0316 36.8325 55.8122 34.052C58.1519 31.7123 59.0746 28.4932 58.5821 25.4589C58.5278 25.1247 58.2912 24.8491 57.9692 24.7451C57.6471 24.641 57.2936 24.7256 57.0543 24.965L54.9673 27.052C53.2677 28.7516 50.512 28.7516 48.8124 27.052C47.1127 25.3524 47.1127 22.5967 48.8124 20.8971L50.8994 18.8102C51.1389 18.5707 51.2242 18.2172 51.1199 17.895C51.0158 17.5727 50.7397 17.3366 50.4054 17.2824C47.3712 16.7898 44.152 17.7125 41.8125 20.0522C38.9905 22.8742 38.231 26.9752 39.5289 30.4885L36.4805 33.5369L40.1115 37.1681Z" fill="white"/>
<path d="M34.5548 42.6922L30.939 39.0764L18.2955 51.7198C16.6515 53.3638 16.6515 56.0292 18.2955 57.6732C19.9395 59.3172 22.605 59.3172 24.249 57.6732L35.1484 46.7739C34.0491 45.6687 33.851 44.0002 34.5548 42.6922Z" fill="white"/>
<path d="M42.619 39.3165C42.3605 39.058 42.0215 38.9286 41.6826 38.9286C41.3438 38.9286 41.0048 39.058 40.7462 39.3165L39.9915 40.0713L26.5465 26.6263L27.1749 25.9979C27.7475 25.4254 27.6765 24.4758 27.0238 23.9952L21.5383 19.9552C21.0111 19.5671 20.2795 19.6222 19.8166 20.0851L17.4875 22.4144C17.0246 22.8773 16.9694 23.609 17.3576 24.1361L21.3974 29.6216C21.878 30.2741 22.827 30.3459 23.4001 29.7727L24.0285 29.1442L37.4735 42.5891L36.6656 43.397C36.1484 43.9142 36.1484 44.7526 36.6656 45.2698L49.0689 57.6731C50.7129 59.3171 53.3783 59.3171 55.0223 57.6731C56.6664 56.0291 56.6664 53.3637 55.0223 51.7197L42.619 39.3165Z" fill="white"/>
</g>
<defs>
<clipPath id="clip0">
<rect width="41.7526" height="41.7526" fill="white" transform="translate(17.0098 17.1536)"/>
</clipPath>
</defs>
</svg>
