<svg width="118" height="103" viewBox="0 0 118 103" fill="none" xmlns="http://www.w3.org/2000/svg">
<g clip-path="url(#clip0)">
<path d="M58.0308 1.55799C59.2805 0.827737 60.2837 1.4155 60.2837 2.85819L60.4069 44.9278C60.4069 46.3705 59.4037 48.1338 58.154 48.864L3.16908 80.9951C1.91942 81.7253 0.916174 81.1375 0.916174 79.6949L0.792969 37.6253C0.792969 36.1826 1.79622 34.4193 3.04587 33.689L58.0308 1.55799Z" fill="#D0F2F9"/>
<path d="M58.8395 0.935542C58.4347 0.686188 57.8715 0.72181 57.2379 1.09584L2.2529 33.2269C1.00325 33.9571 0 35.7204 0 37.1631L0.123206 79.2327C0.123206 79.9452 0.369617 80.4617 0.774436 80.6932L1.56647 81.1563C1.16165 80.9248 0.915243 80.4082 0.915243 79.6958L0.792037 37.6262C0.792037 36.1835 1.79528 34.4202 3.04494 33.69L58.0299 1.55893C58.6635 1.1849 59.2268 1.16708 59.6316 1.39863L58.8395 0.935542Z" fill="#2CA9E5"/>
<path d="M54.2984 32.7273L54.316 35.9689L9.15234 62.347V59.1054L54.2984 32.7273Z" fill="#C5FEED"/>
<path d="M54.3336 42.6123V45.8717L9.18752 72.2498L9.16992 69.0082L54.3336 42.6123Z" fill="#C5FEED"/>
<path d="M54.3161 37.6787L54.3337 40.9203L9.16994 67.2984L9.15234 64.0568L54.3161 37.6787Z" fill="#C5FEED"/>
<path d="M36.8376 26.3508L38.1928 27.1345L32.0853 37.8389L28.002 35.4879L29.3572 33.1012L32.0853 34.6864L36.8376 26.3508Z" fill="#77DAEF"/>
<path d="M32.6834 22.3256C37.6117 19.4402 41.6423 21.7735 41.6599 27.5086C41.6775 33.2437 37.6821 40.2613 32.7362 43.1467C27.808 46.032 23.7774 43.6988 23.7598 37.9637C23.7422 32.2107 27.7376 25.1932 32.6834 22.3256ZM32.7362 40.9025C36.6084 38.6405 39.759 33.1369 39.7414 28.6307C39.7238 24.1245 36.5732 22.3078 32.6834 24.5698C28.8113 26.8318 25.6607 32.3354 25.6783 36.8416C25.6959 41.3299 28.8641 43.1645 32.7362 40.9025Z" fill="#77DAEF"/>
</g>
<g clip-path="url(#clip1)">
<path d="M107.177 14.8814C106.718 14.6142 106.095 14.6476 105.391 15.0651L76.9224 31.817C76.234 32.2179 75.5949 32.268 75.1523 32.0007L77.3485 33.3035C77.8074 33.5707 78.4302 33.5373 79.1185 33.1198L107.587 16.3678C108.275 15.967 108.914 15.9169 109.373 16.1841L107.177 14.8814Z" fill="url(#paint0_linear)"/>
<path d="M74.0869 26.2386C75.4636 25.4202 76.5944 26.0716 76.5944 27.6917L76.6108 31.65C76.6108 33.2701 77.7417 33.9214 79.1184 33.103L107.587 16.3678C108.963 15.5495 110.094 16.2008 110.094 17.8209L110.209 63.016C110.209 64.636 109.094 66.6069 107.718 67.4085L48.9785 101.965C47.6018 102.783 46.471 100.278 46.471 98.6576L46.4054 68.9284L46.3562 52.3769L46.3398 45.4791C46.3398 43.859 47.4543 41.9049 48.831 41.0865L74.0869 26.2386Z" fill="#587E9E"/>
<path d="M108.26 18.322C109.522 17.5704 110.554 18.1717 110.554 19.6582L110.669 62.6987C110.669 64.1852 109.653 65.9723 108.391 66.7238L52.5362 99.593C51.2742 100.328 50.2417 99.7433 50.2417 98.2568L50.127 55.2163C50.127 53.7298 51.1431 51.926 52.4051 51.1912L108.26 18.322Z" fill="#D0F2F9"/>
<path d="M109.094 17.6873C108.684 17.4368 108.094 17.4702 107.471 17.8543L51.6004 50.7235C50.3384 51.4584 49.3223 53.2621 49.3223 54.7486L49.437 97.7891C49.437 98.524 49.6992 99.0418 50.109 99.2923L50.912 99.76C50.5023 99.5094 50.2401 99.0084 50.2401 98.2568L50.1253 55.2163C50.1253 53.7298 51.1415 51.926 52.4034 51.1911L108.258 18.322C108.897 17.9545 109.471 17.9044 109.881 18.155L109.094 17.6873Z" fill="#A2E6F5"/>
<path d="M110.094 19.6748C111.356 18.9232 112.388 19.5245 112.388 21.011L112.503 64.0515C112.503 65.538 111.487 67.325 110.225 68.0766L54.3702 100.946C53.1082 101.681 52.0757 101.096 52.0757 99.6096L51.9609 56.5691C51.9609 55.0826 52.9771 53.2788 54.239 52.544L110.094 19.6748Z" fill="#D0F2F9"/>
<path d="M110.928 19.0401C110.518 18.7896 109.928 18.823 109.305 19.2071L53.4344 52.0762C52.1724 52.8111 51.1562 54.6149 51.1562 56.1014L51.271 99.1419C51.271 99.8768 51.5332 100.395 51.9429 100.645L52.746 101.113C52.3363 100.862 52.074 100.361 52.074 99.6096L51.9593 56.569C51.9593 55.0826 52.9755 53.2788 54.2374 52.5439L110.092 19.6748C110.731 19.3073 111.305 19.2572 111.715 19.5077L110.928 19.0401Z" fill="#A2E6F5"/>
<path d="M117.714 24.535C117.714 22.9149 116.583 22.2636 115.206 23.082L56.3522 55.2997C54.9755 56.1181 53.8611 58.0722 53.8611 59.6923L52.7138 95.7849L53.1236 100.111L49.8457 102.9C49.8457 102.9 52.2385 103.618 56.4834 101.113L115.206 66.5567C116.583 65.7383 117.697 63.7842 117.697 62.1642L117.714 24.535Z" fill="url(#paint1_linear)"/>
<path d="M50.207 102.9C50.7807 102.9 51.3379 102.783 51.846 102.533C53.0588 101.931 53.8127 100.662 53.8946 99.0586C54.0585 96.119 53.8454 62.0307 53.8454 62.0307C53.8454 60.4106 54.9599 58.4398 56.3366 57.6381L115.076 23.0654C115.764 22.6645 116.403 22.6144 116.862 22.8816L114.666 21.5789C114.207 21.3117 113.584 21.3451 112.88 21.7626L54.1568 56.3354C52.7801 57.1537 51.6657 59.1078 51.6657 60.7279C51.6657 60.7279 51.8787 96.8372 51.764 98.9249C51.7312 99.4928 51.5673 100.244 50.9282 100.562" fill="url(#paint2_linear)"/>
<path d="M50.9113 100.562C50.223 100.896 49.2069 100.679 48.2399 99.9772C46.3387 98.6077 46.4535 96.0189 46.4535 95.9855L46.4043 68.9286L46.3551 52.3771L46.3387 45.4793C46.3387 43.8592 47.4532 41.9051 48.8299 41.0867L74.0858 26.2221C74.7741 25.8046 75.4133 25.7711 75.8722 26.0384L73.676 24.7356C73.2171 24.4684 72.5943 24.5018 71.8896 24.9194L46.6337 39.784C45.257 40.619 44.1426 42.5899 44.1426 44.1932L44.159 51.0911L44.2081 67.6426L44.3065 95.9688C44.3065 96.1191 44.1754 99.7267 47.0107 101.764C48.0596 102.516 49.1741 102.9 50.2066 102.9" fill="url(#paint3_linear)"/>
</g>
<g clip-path="url(#clip2)">
<path d="M23.6063 79.1143C27.2288 76.9948 30.2025 78.7067 30.2296 82.8914C30.2296 87.0761 27.2829 92.2118 23.6604 94.3313C20.0108 96.4508 17.0371 94.7389 17.0371 90.5542C17.0371 86.3696 19.9567 81.2338 23.6063 79.1143Z" fill="#65C0D1" fill-opacity="0.48"/>
</g>
<g clip-path="url(#clip3)">
<path d="M82.468 0.449376C84.3858 -0.610378 85.9602 0.245577 85.9745 2.33791C85.9745 4.43025 84.4145 6.99812 82.4967 8.05787C80.5646 9.11763 78.9902 8.26167 78.9902 6.16933C78.9902 4.077 80.5359 1.50913 82.468 0.449376Z" fill="#FF4B47"/>
</g>
<defs>
<linearGradient id="paint0_linear" x1="75.1424" y1="24.0882" x2="109.362" y2="24.0882" gradientUnits="userSpaceOnUse">
<stop stop-color="#7DB2E0"/>
<stop offset="1" stop-color="#78ABD8"/>
</linearGradient>
<linearGradient id="paint1_linear" x1="110.935" y1="76.36" x2="46.1796" y2="45.872" gradientUnits="userSpaceOnUse">
<stop stop-color="#7DB2E0"/>
<stop offset="1" stop-color="white"/>
</linearGradient>
<linearGradient id="paint2_linear" x1="50.2115" y1="62.1641" x2="116.856" y2="62.1641" gradientUnits="userSpaceOnUse">
<stop stop-color="#7DB2E0"/>
<stop offset="1" stop-color="#78ABD8"/>
</linearGradient>
<linearGradient id="paint3_linear" x1="44.1426" y1="63.7474" x2="75.864" y2="63.7474" gradientUnits="userSpaceOnUse">
<stop stop-color="#7DB2E0"/>
<stop offset="1" stop-color="#78ABD8"/>
</linearGradient>
<clipPath id="clip0">
<rect width="60.406" height="80.5414" fill="white" transform="translate(0 0.774414)"/>
</clipPath>
<clipPath id="clip1">
<rect width="73.5714" height="88.2857" fill="white" transform="translate(44.1426 14.7144)"/>
</clipPath>
<clipPath id="clip2">
<rect width="13.1654" height="17.0376" fill="white" transform="translate(17.0371 78.2183)"/>
</clipPath>
<clipPath id="clip3">
<rect width="6.96992" height="8.5188" fill="white" transform="translate(78.9902)"/>
</clipPath>
</defs>
</svg>
