<svg width="260" height="58" fill="none" xmlns="http://www.w3.org/2000/svg"><path d="M40.95 16.262a1.033 1.033 0 1 0 .261-1.446 1.042 1.042 0 0 0-.261 1.446zM38.31 13.675a1.169 1.169 0 0 0 .395.821 1.202 1.202 0 0 0 1.887-1.41 1.201 1.201 0 0 0-.281-.375 1.175 1.175 0 0 0-.788-.291 1.205 1.205 0 0 0-1.145.79c-.053.148-.076.306-.068.465zM35.67 13.081c.207.116.44.179.677.181a1.397 1.397 0 0 0 1.344-1.785 1.4 1.4 0 0 0-.665-.838 1.338 1.338 0 0 0-.646-.157 1.444 1.444 0 0 0-1.261.708 1.415 1.415 0 0 0 .551 1.891zM31.824 12.264c.293.081.602.081.895 0a1.637 1.637 0 0 0 1.175-1.572 1.633 1.633 0 0 0-1.182-1.566 1.473 1.473 0 0 0-.415-.057 1.69 1.69 0 0 0-1.602 1.183 1.65 1.65 0 0 0 1.129 2.012zM27.169 12.332a1.91 1.91 0 0 0 1.818-1.09 1.904 1.904 0 0 0-.313-2.094 1.868 1.868 0 0 0-1.306-.62h-.093a1.942 1.942 0 0 0-1.91 1.81 1.904 1.904 0 0 0 1.804 1.994zM19.287 11.845a2.222 2.222 0 0 0 2.822 1.746 2.225 2.225 0 0 0 1.571-2.45 2.222 2.222 0 0 0-2.202-1.905c-.13 0-.259.011-.386.033a2.245 2.245 0 0 0-1.805 2.576zM41.33 20.21a1.202 1.202 0 0 0-.094-1.696 1.222 1.222 0 0 0-1.687.085 1.197 1.197 0 0 0 .888 2.008 1.199 1.199 0 0 0 .892-.397zM38.62 17.269a1.398 1.398 0 0 0-.67-.84c-.2-.106-.424-.16-.65-.157a1.438 1.438 0 0 0-1.253.717 1.415 1.415 0 0 0 .556 1.898 1.375 1.375 0 0 0 1.069.115 1.361 1.361 0 0 0 .821-.666 1.384 1.384 0 0 0 .126-1.067zM34.758 16.93a1.65 1.65 0 0 0-.147-1.243 1.622 1.622 0 0 0-.973-.77 1.517 1.517 0 0 0-.42-.058 1.679 1.679 0 0 0-1.596 1.177 1.622 1.622 0 0 0 2.026 2.01 1.623 1.623 0 0 0 1.11-1.115zM30.093 16.326a1.878 1.878 0 0 0-.49-1.378 1.858 1.858 0 0 0-1.407-.618 1.956 1.956 0 0 0-1.9 1.8 1.905 1.905 0 0 0 1.803 1.997h.107a1.893 1.893 0 0 0 1.892-1.803l-.005.002zM22.402 15.032a2.226 2.226 0 0 0-2.193 2.607 2.223 2.223 0 0 0 2.823 1.748 2.227 2.227 0 0 0 1.563-2.449 2.224 2.224 0 0 0-2.193-1.906zM13.642 20.986a2.591 2.591 0 0 0 2.384 1.587c.247 0 .493-.036.73-.107a2.602 2.602 0 0 0 1.884-2.521 2.598 2.598 0 0 0-1.63-2.388 2.606 2.606 0 0 0-3.531 1.928 2.596 2.596 0 0 0 .163 1.501zM40.548 22.831c-.2-.11-.426-.168-.655-.166a1.421 1.421 0 0 0-1.243.708 1.398 1.398 0 0 0 .542 1.899 1.378 1.378 0 0 0 1.072.124 1.401 1.401 0 0 0 .997-1.188 1.396 1.396 0 0 0-.713-1.377zM34.358 23.682a1.63 1.63 0 0 0 2.074.698 1.633 1.633 0 0 0 .904-1.99 1.63 1.63 0 0 0-1.102-1.07c-.137-.04-.28-.06-.422-.058a1.681 1.681 0 0 0-1.586 1.173 1.631 1.631 0 0 0 .132 1.247zM32.693 22.723a1.906 1.906 0 0 0-1.809-1.998h-.09a1.948 1.948 0 0 0-1.9 1.804 1.902 1.902 0 0 0 1.798 2.003h.093a1.92 1.92 0 0 0 1.907-1.809zM24.997 25.881c.129 0 .258-.011.385-.035a2.23 2.23 0 0 0 1.813-2.51 2.227 2.227 0 0 0-2.587-1.874 2.232 2.232 0 0 0-1.822 2.388A2.227 2.227 0 0 0 25 25.881h-.003zM21.04 27.342a2.593 2.593 0 0 0-.017-1.99 2.65 2.65 0 0 0-2.414-1.574 2.598 2.598 0 0 0-2.584 2.623c.004.341.075.679.21.993a2.59 2.59 0 0 0 3.126 1.477 2.59 2.59 0 0 0 1.679-1.529zM14.505 29.376a3.032 3.032 0 0 0-3.178-1.171 3.05 3.05 0 0 0-2.013 4.31 3.052 3.052 0 0 0 4.524 1.122 3.062 3.062 0 0 0 .667-4.26zM47.239 40.05a1.042 1.042 0 0 0-1.033-.945h-.09a1.036 1.036 0 0 0-.938 1.12 1.042 1.042 0 0 0 1.025.944.84.84 0 0 0 .09 0c.273-.026.526-.16.702-.37a1.011 1.011 0 0 0 .244-.75zM47.964 38.9a1.19 1.19 0 0 0 .742 1.417 1.194 1.194 0 0 0 1.485-.595c.145-.282.173-.61.08-.912a1.177 1.177 0 0 0-.597-.7 1.198 1.198 0 0 0-.537-.131c-.127 0-.252.021-.37.063a1.18 1.18 0 0 0-.803.858zM50.868 36.99a1.398 1.398 0 0 0 1.365 1.732c.252 0 .498-.07.713-.2a1.445 1.445 0 0 0 .473-1.924 1.419 1.419 0 0 0-1.203-.674 1.395 1.395 0 0 0-1.348 1.066zM55.284 35.99a1.62 1.62 0 0 0 1.13-.458 1.687 1.687 0 0 0 .035-2.313 1.611 1.611 0 0 0-1.168-.486c-.426 0-.835.163-1.143.457a1.632 1.632 0 0 0 1.116 2.799l.03.002zM59.596 31.195a1.94 1.94 0 0 0-.564-2.64 1.893 1.893 0 0 0-2.625.566 1.97 1.97 0 0 0-.255.59 1.898 1.898 0 0 0 1.085 2.2 1.905 1.905 0 0 0 2.353-.7l.006-.016zM60.765 22.527a2.166 2.166 0 0 0-.755-.132 2.238 2.238 0 0 0-2.167 1.705 2.216 2.216 0 0 0 1.985 2.721 2.224 2.224 0 0 0 2.124-1.144 2.216 2.216 0 0 0-1.187-3.151v.002zM42.486 36.814a1.194 1.194 0 1 0 2.355.37 1.2 1.2 0 0 0-1.19-1.291 1.204 1.204 0 0 0-1.165.921zM46.412 36.583c.36.089.742.032 1.06-.158a1.444 1.444 0 0 0 .474-1.929 1.418 1.418 0 0 0-1.205-.664 1.389 1.389 0 0 0-1.35 1.068 1.355 1.355 0 0 0 .157 1.045 1.382 1.382 0 0 0 .864.638zM49.8 33.897a1.604 1.604 0 0 0 1.608-1.603c.012-.431-.146-.85-.44-1.165a1.634 1.634 0 0 0-2.798 1.274 1.63 1.63 0 0 0 1.605 1.494h.025zM54.118 29.1a1.89 1.89 0 0 0 .252-1.427 1.918 1.918 0 0 0-.81-1.21 1.908 1.908 0 0 0-2.879 1.156 1.9 1.9 0 0 0 1.017 2.154 1.908 1.908 0 0 0 1.235.151 1.892 1.892 0 0 0 1.185-.825zM53.774 24.618a2.231 2.231 0 0 0 2.949-1.705 2.223 2.223 0 0 0-1.429-2.481 2.19 2.19 0 0 0-1.7.077 2.209 2.209 0 0 0-1.22 1.507 2.223 2.223 0 0 0 1.4 2.602zM55.052 18.228a2.607 2.607 0 0 0 2.918-2.424 2.6 2.6 0 0 0-2.288-2.742 2.586 2.586 0 0 0-2.893 2.275 2.594 2.594 0 0 0 1.303 2.582c.296.166.623.27.96.309zM41.261 34.599c.091-.354.04-.729-.145-1.044a1.408 1.408 0 0 0-1.2-.677 1.411 1.411 0 0 0-1.359 1.067c-.086.36-.03.74.158 1.06a1.401 1.401 0 0 0 1.917.472c.318-.198.544-.514.629-.878zM42.975 32.943c.421.003.826-.16 1.127-.456a1.68 1.68 0 0 0 .043-2.308 1.626 1.626 0 0 0-2.756.753 1.622 1.622 0 0 0 1.586 2.01zM44.657 28.714a1.907 1.907 0 0 0 2.632-.566 1.956 1.956 0 0 0-.56-2.63 1.909 1.909 0 0 0-2.634.558c-.116.182-.2.38-.252.59a1.922 1.922 0 0 0 .814 2.048zM48.453 19.483a2.182 2.182 0 0 0-.752-.132 2.236 2.236 0 0 0-2.161 1.706 2.218 2.218 0 0 0 .808 2.28 2.227 2.227 0 0 0 3.308-.699 2.218 2.218 0 0 0-1.203-3.155zM48.85 12.113a2.59 2.59 0 0 0-2.891 2.267 2.602 2.602 0 0 0 2.565 2.92 2.633 2.633 0 0 0 2.59-2.287 2.586 2.586 0 0 0-2.264-2.9zM47.67 9.64a3.052 3.052 0 0 0 3.048-3.204 3.044 3.044 0 0 0-3.037-2.888 3.051 3.051 0 0 0-3.052 3.204 3.045 3.045 0 0 0 3.052 2.889h-.011zM23.545 30.978a.999.999 0 0 0-.705-.28 1.03 1.03 0 0 0-.936.59c-.113.248-.124.53-.031.787a1.024 1.024 0 0 0 .528.592 1.035 1.035 0 0 0 1.446-1.161 1.032 1.032 0 0 0-.302-.528zM22.45 33.572a1.208 1.208 0 0 0-1.425.929 1.238 1.238 0 0 0 .93 1.417 1.193 1.193 0 0 0 1.418-.921 1.184 1.184 0 0 0-.34-1.127 1.174 1.174 0 0 0-.584-.298zM22.296 39.757a1.403 1.403 0 0 0 1.33-1.7 1.377 1.377 0 0 0-1.341-1.09 1.408 1.408 0 0 0-1.02.423 1.384 1.384 0 0 0-.39.995 1.449 1.449 0 0 0 1.405 1.378l.016-.006zM23.336 44.111c.123.002.245-.013.364-.044a1.63 1.63 0 0 0 1.175-2.025 1.628 1.628 0 0 0-.446-.736 1.633 1.633 0 0 0-1.525-.403 1.633 1.633 0 0 0-1.185 1.977 1.694 1.694 0 0 0 1.617 1.231zM26.443 48.64a1.905 1.905 0 0 0-1.734-3.392 1.911 1.911 0 0 0-1.03 1.85 1.889 1.889 0 0 0 .917 1.468c.303.183.65.28 1.005.278.293 0 .581-.07.842-.203zM31.059 50.02a2.224 2.224 0 0 0-3.931 1.302c-.03.57.162 1.13.534 1.562a2.248 2.248 0 0 0 1.712.787 2.193 2.193 0 0 0 1.419-.515 2.24 2.24 0 0 0 .266-3.136zM27 29.86a1.218 1.218 0 0 0-.905.17 1.193 1.193 0 0 0 .192 2.094 1.193 1.193 0 0 0 1.632-.835A1.204 1.204 0 0 0 27 29.86zM26.85 36.056a1.41 1.41 0 0 0 1.33-1.71 1.405 1.405 0 0 0-.399-.708 1.37 1.37 0 0 0-.946-.38h-.05a1.374 1.374 0 0 0-.977.421c-.257.27-.397.63-.39 1.002a1.434 1.434 0 0 0 1.419 1.372l.013.004zM26.45 37.947c-.22.371-.285.814-.18 1.232a1.685 1.685 0 0 0 1.61 1.232 1.633 1.633 0 0 0 1.59-1.83 1.63 1.63 0 0 0-1.622-1.43 1.688 1.688 0 0 0-.402.042 1.652 1.652 0 0 0-.996.755zM28.313 42.66a1.888 1.888 0 0 0 .116 1.444 1.932 1.932 0 0 0 2.557.836 1.913 1.913 0 0 0 .442-3.08 1.893 1.893 0 0 0-1.307-.518c-.3 0-.596.07-.864.206a1.882 1.882 0 0 0-.945 1.112zM35.608 46.325a2.209 2.209 0 0 0-1.7-.798 2.23 2.23 0 0 0-2.018 1.289 2.223 2.223 0 0 0 .32 2.371 2.197 2.197 0 0 0 1.7.794 2.26 2.26 0 0 0 1.434-.52 2.227 2.227 0 0 0 .264-3.136zM41.24 50.042a2.936 2.936 0 0 0-.239-.201 2.586 2.586 0 0 0-3.635.511 2.6 2.6 0 0 0 4.15 3.13 2.597 2.597 0 0 0-.275-3.44zM31.072 30.604a1.409 1.409 0 0 0 1.34-1.703 1.405 1.405 0 0 0-.394-.71c-.267-.25-.62-.39-.987-.387a1.404 1.404 0 0 0-1.374 1.426 1.435 1.435 0 0 0 1.388 1.374h.027zM30.506 33.73a1.686 1.686 0 0 0 1.613 1.234 1.617 1.617 0 0 0 1.37-.789c.221-.37.288-.814.185-1.233a1.69 1.69 0 0 0-.46-.787 1.625 1.625 0 0 0-1.524-.4 1.636 1.636 0 0 0-1.184 1.974zM32.668 38.66a1.936 1.936 0 0 0 1.715 1.026c.29 0 .574-.068.831-.199a1.903 1.903 0 0 0 .635-2.874 1.904 1.904 0 0 0-3.189 2.048h.008zM36.446 43.737a2.205 2.205 0 0 0 1.696.787 2.223 2.223 0 0 0 2.082-1.394 2.216 2.216 0 0 0-.543-2.443 2.217 2.217 0 0 0-2.965-.094 2.238 2.238 0 0 0-.27 3.144zM45.758 48.033a2.608 2.608 0 0 0-.514-3.643 2.564 2.564 0 0 0-1.93-.5 2.569 2.569 0 0 0-1.711 1.018 2.591 2.591 0 0 0-.483 1.943 2.589 2.589 0 0 0 2.565 2.221 2.587 2.587 0 0 0 2.073-1.04zM53.219 47.566a3.078 3.078 0 0 0-.861-.577 3.057 3.057 0 0 0-4.07 1.658 3.045 3.045 0 0 0 .737 3.346c.254.24.547.435.866.578.385.173.803.262 1.226.261a3.059 3.059 0 0 0 2.832-1.92 3.048 3.048 0 0 0-.73-3.34v-.006zM92.822 40.131h3.924v1.005h-2.699v1.68h2.33v.985h-2.33v1.784h2.773v1.004h-3.998v-6.458zM99.225 43.36a3.73 3.73 0 0 1 .236-1.347c.146-.393.37-.753.659-1.057.287-.296.631-.53 1.011-.69a3.245 3.245 0 0 1 1.281-.248 4.067 4.067 0 0 1 1.869.472v1.102a4.146 4.146 0 0 0-.844-.404 2.595 2.595 0 0 0-.816-.14 2.178 2.178 0 0 0-.864.168c-.254.108-.482.269-.669.472a2.182 2.182 0 0 0-.433.732 2.71 2.71 0 0 0-.158.935c-.003.317.051.632.158.93.095.27.242.518.433.732.186.204.414.365.669.472.273.115.567.172.864.168.278-.002.553-.049.816-.14.296-.102.579-.237.844-.403v1.102a4.05 4.05 0 0 1-1.869.473 3.216 3.216 0 0 1-1.281-.25 3.013 3.013 0 0 1-1.011-.689 3.097 3.097 0 0 1-.659-1.056 3.716 3.716 0 0 1-.236-1.334zM107.166 40.131h1.226v5.454h2.603v1.004h-3.829v-6.458zM114.844 40.131h-1.227v6.458h1.227v-6.458zM119.352 43.294h.914c.315.014.622-.094.86-.3a1.115 1.115 0 0 0 .243-1.222 1.115 1.115 0 0 0-.243-.364 1.223 1.223 0 0 0-.86-.3h-.914v2.186zm-1.207-3.163h2.292c.31-.002.618.052.909.158.265.094.509.239.718.426.201.183.362.406.473.654a2.164 2.164 0 0 1 0 1.68 1.96 1.96 0 0 1-.473.651 2.078 2.078 0 0 1-.718.424c-.292.101-.6.152-.909.15h-1.085v2.319h-1.207V40.13zM125.38 45.135a3.367 3.367 0 0 0 1.812.58c.31.015.617-.074.871-.253a.78.78 0 0 0 .336-.666.646.646 0 0 0-.232-.52 2.083 2.083 0 0 0-.584-.33 13.52 13.52 0 0 0-.759-.263 3.376 3.376 0 0 1-.759-.342 1.897 1.897 0 0 1-.585-.554 1.57 1.57 0 0 1-.232-.9c-.003-.262.055-.52.17-.756a1.78 1.78 0 0 1 .473-.592c.219-.174.469-.304.736-.384a3.07 3.07 0 0 1 .946-.137c.6.004 1.192.126 1.745.357v1.117a3.605 3.605 0 0 0-.834-.366 2.935 2.935 0 0 0-.826-.123 1.41 1.41 0 0 0-.843.235.74.74 0 0 0-.326.63.597.597 0 0 0 .231.502c.178.134.375.24.585.315.235.091.489.18.758.263.267.083.523.2.76.348.234.145.434.339.585.568.166.274.247.59.232.91a1.739 1.739 0 0 1-.67 1.393c-.222.177-.475.311-.746.396a3.097 3.097 0 0 1-.946.14c-.318-.001-.635-.037-.945-.107a4.915 4.915 0 0 1-.946-.325l-.007-1.136zM132.5 40.131h3.924v1.005h-2.698v1.68h2.33v.985h-2.33v1.784h2.773v1.004H132.5v-6.458zM149.894 46.59h-1.113l-1.537-4.892-1.528 4.891h-1.113l-2.216-6.458h1.236l1.537 4.89 1.537-4.89h1.113l1.527 4.89 1.528-4.89h1.245l-2.216 6.458zM155.336 43.36c-.003.315.042.629.136.93.083.265.214.513.388.731.161.2.365.362.597.473a1.765 1.765 0 0 0 2.147-.473 2.27 2.27 0 0 0 .387-.732 3.217 3.217 0 0 0 0-1.86 2.317 2.317 0 0 0-.387-.731 1.803 1.803 0 0 0-2.147-.473 1.741 1.741 0 0 0-.597.473 2.29 2.29 0 0 0-.388.732 3.025 3.025 0 0 0-.136.93zm-1.273 0c-.005-.46.075-.916.235-1.347.146-.392.369-.751.655-1.057.283-.295.623-.53 1-.69a3.41 3.41 0 0 1 2.557 0 2.998 2.998 0 0 1 1.655 1.747c.313.87.313 1.823 0 2.694a3.138 3.138 0 0 1-.656 1.056c-.282.296-.622.53-.999.69a3.409 3.409 0 0 1-2.557 0 2.999 2.999 0 0 1-1-.69 3.158 3.158 0 0 1-.655-1.056 3.726 3.726 0 0 1-.235-1.347zM163.258 40.131h2.255c.307 0 .612.053.901.158.26.092.5.234.707.417.198.18.356.399.463.644.109.262.163.543.158.826.009.409-.111.81-.344 1.145a1.956 1.956 0 0 1-.966.713l1.537 2.563h-1.34l-1.395-2.394h-.774v2.394h-1.208l.006-6.466zm1.208 3.088h.878c.304.013.602-.093.829-.296a.97.97 0 0 0 .315-.754.992.992 0 0 0-.315-.765 1.168 1.168 0 0 0-.829-.297h-.878v2.112zM170.77 40.131h1.207v2.675l2.461-2.675h1.472l-2.867 3.173 2.952 3.285h-1.491l-2.527-2.788v2.788h-1.207v-6.458zM179.699 40.131h-1.226v6.458h1.226v-6.458zM183.002 40.131h1.066l3.244 4.497V40.13h1.16v6.458h-1.075l-3.235-4.496v4.496h-1.16v-6.458zM196.876 46.175c-.363.165-.74.296-1.127.39-.369.09-.747.136-1.127.136a3.433 3.433 0 0 1-1.329-.249 3.127 3.127 0 0 1-1.044-.69 3.043 3.043 0 0 1-.678-1.056 3.888 3.888 0 0 1 0-2.693 3.043 3.043 0 0 1 1.706-1.746 3.413 3.413 0 0 1 1.316-.25 4.296 4.296 0 0 1 2.01.517v1.145c-.623-.438-1.233-.657-1.83-.657a2.251 2.251 0 0 0-.887.173 2.062 2.062 0 0 0-.697.484 2.173 2.173 0 0 0-.453.738 2.644 2.644 0 0 0-.157.945c-.004.322.05.641.157.944.096.273.245.524.439.737a1.994 1.994 0 0 0 1.533.652c.169 0 .336-.02.5-.06.174-.042.344-.097.509-.165v-1.436h-1.376v-.929h2.537l-.002 3.07zM209.015 46.175c-.363.165-.74.296-1.127.39a4.81 4.81 0 0 1-1.128.136 3.438 3.438 0 0 1-1.329-.248 3.132 3.132 0 0 1-1.042-.69 3.06 3.06 0 0 1-.679-1.057 3.877 3.877 0 0 1 0-2.693 3.03 3.03 0 0 1 1.707-1.746c.418-.17.866-.254 1.317-.25a4.3 4.3 0 0 1 2.008.517v1.145c-.623-.438-1.233-.657-1.83-.657a2.238 2.238 0 0 0-.886.174 2.078 2.078 0 0 0-.699.483 2.193 2.193 0 0 0-.452.738c-.11.303-.163.623-.158.945-.003.322.05.641.158.944.096.273.245.523.438.737.189.206.419.371.675.484.271.116.564.173.859.168.168 0 .336-.02.5-.06.174-.042.344-.097.509-.165v-1.436h-1.376v-.929h2.536l-.001 3.07zM212.08 40.131h2.254c.307 0 .612.053.901.158.26.092.5.234.707.417.199.18.356.399.462.644.11.261.164.543.158.826a1.895 1.895 0 0 1-1.312 1.858l1.537 2.563h-1.338l-1.397-2.394h-.772v2.394h-1.208l.008-6.466zm1.208 3.088h.876c.305.013.603-.093.831-.296a.987.987 0 0 0 .315-.754.992.992 0 0 0-.315-.765 1.173 1.173 0 0 0-.831-.297h-.876v2.112zM220.428 43.36c-.003.315.043.629.137.93.083.265.214.513.387.731a1.72 1.72 0 0 0 1.372.641c.267 0 .531-.057.773-.168a1.72 1.72 0 0 0 .599-.473 2.22 2.22 0 0 0 .387-.732 3.234 3.234 0 0 0 0-1.86 2.265 2.265 0 0 0-.387-.731 1.705 1.705 0 0 0-1.371-.647 1.741 1.741 0 0 0-1.373.64 2.29 2.29 0 0 0-.387.732c-.095.304-.141.62-.137.937zm-1.273 0c-.005-.46.075-.917.236-1.347.146-.393.369-.752.656-1.057.282-.296.622-.53.999-.69a3.407 3.407 0 0 1 2.556 0c.377.16.717.394.999.69.287.305.51.664.656 1.057.315.87.315 1.823 0 2.693a3.102 3.102 0 0 1-.656 1.057 2.96 2.96 0 0 1-.999.69 3.408 3.408 0 0 1-2.556 0 2.972 2.972 0 0 1-.999-.69 3.14 3.14 0 0 1-.656-1.057 3.704 3.704 0 0 1-.236-1.346zM233.859 44.176c.004.35-.067.698-.208 1.018a2.33 2.33 0 0 1-.576.799 2.639 2.639 0 0 1-.876.52 3.43 3.43 0 0 1-2.236 0 2.67 2.67 0 0 1-.878-.52 2.296 2.296 0 0 1-.569-.799 2.51 2.51 0 0 1-.203-1.018V40.13h1.234v3.961c-.002.216.038.43.117.63.073.184.179.353.315.498.137.142.302.254.486.329.2.08.414.12.63.116a1.498 1.498 0 0 0 1.104-.446 1.47 1.47 0 0 0 .315-.497c.077-.2.116-.414.113-.63v-3.96h1.236l-.004 4.044zM238.321 43.294h.915a1.23 1.23 0 0 0 .859-.3 1.128 1.128 0 0 0 .244-1.222 1.134 1.134 0 0 0-.244-.364 1.222 1.222 0 0 0-.859-.3h-.915v2.186zm-1.206-3.163h2.292c.311-.002.619.052.91.158.265.094.508.239.717.426.201.183.362.406.473.654a2.146 2.146 0 0 1 0 1.68c-.11.247-.271.47-.473.651a2.083 2.083 0 0 1-.717.424c-.292.101-.6.152-.91.15h-1.084v2.319h-1.208V40.13zM96.74 14.551h-5.588v-2.857h14.655v2.857h-5.563v15.516h-3.503V14.551zM128.967 11.694h3.02l9.2 12.792V11.694h3.289v18.373h-3.049l-9.172-12.792v12.792h-3.288V11.694zM165.895 28.893a18.436 18.436 0 0 1-3.196 1.102 13.442 13.442 0 0 1-3.195.387 9.755 9.755 0 0 1-3.769-.708 8.879 8.879 0 0 1-2.961-1.956 8.694 8.694 0 0 1-1.925-3.005 10.472 10.472 0 0 1-.682-3.832 10.472 10.472 0 0 1 .682-3.832 8.628 8.628 0 0 1 4.84-4.968 9.593 9.593 0 0 1 3.735-.708c1.926 0 3.825.49 5.697 1.469v3.254c-1.766-1.247-3.495-1.87-5.188-1.87a6.318 6.318 0 0 0-2.515.494 5.853 5.853 0 0 0-1.978 1.376 6.156 6.156 0 0 0-1.283 2.096 7.608 7.608 0 0 0-.456 2.676c-.009.911.14 1.817.441 2.677a6.271 6.271 0 0 0 1.244 2.095 5.663 5.663 0 0 0 1.912 1.376 5.953 5.953 0 0 0 2.447.495c.478-.002.954-.06 1.419-.174.492-.121.975-.28 1.444-.472v-6.754l.047.023h3.241l-.001 8.759zM172.18 11.694h3.476V27.21h7.381v2.857H172.18V11.694zM188.064 11.694h11.124v2.857h-7.647v4.78h6.605v2.804h-6.605v5.075h7.861v2.857h-11.338V11.694zM214.35 11.694h10.51v1.762h-8.344v6.41h7.3v1.736h-7.3v6.704h8.558v1.761H214.35V11.694zM231.277 11.694h10.509v1.762h-8.343v6.41h7.301v1.736h-7.301v6.704H242v1.761h-10.723V11.694zM124.313 30.067h-3.449l-5.295-13.993-5.321 13.993h-3.424l7.247-18.373h2.995l7.247 18.373zM76.248 55.028a.513.513 0 0 1-.513-.511V3.54a.511.511 0 1 1 1.023 0v50.972a.511.511 0 0 1-.51.516z" fill="#2F6193"/></svg>