<svg width="24" height="24" viewBox="0 0 24 24" fill="none" xmlns="http://www.w3.org/2000/svg">
<path fill-rule="evenodd" clip-rule="evenodd" d="M21.1538 0.301514H2.53846C1.13702 0.301514 0 1.42048 0 2.79967V21.1195C0 22.4987 1.13702 23.6177 2.53846 23.6177H21.1538C22.5553 23.6177 23.6923 22.4987 23.6923 21.1195V2.79967C23.6923 1.42048 22.5553 0.301514 21.1538 0.301514ZM18.5676 8.56612C18.5782 8.71184 18.5782 8.86277 18.5782 9.0085C18.5782 13.5208 15.0878 18.7201 8.70994 18.7201C6.74264 18.7201 4.91812 18.158 3.38447 17.19C3.66475 17.2212 3.93447 17.2316 4.22004 17.2316C5.8436 17.2316 7.33494 16.6903 8.52485 15.7743C7.00177 15.7431 5.72196 14.7595 5.28302 13.4063C5.81716 13.4844 6.29841 13.4844 6.84841 13.3438C5.26187 13.0264 4.07197 11.6524 4.07197 9.99215V9.95051C4.53206 10.2055 5.07148 10.3617 5.63735 10.3825C4.67107 9.74995 4.09122 8.68293 4.09312 7.54083C4.09312 6.90588 4.26235 6.32298 4.56379 5.81814C6.27196 7.88953 8.83687 9.2427 11.7138 9.38843C11.222 7.07243 12.983 5.1936 15.0984 5.1936C16.0979 5.1936 16.997 5.60476 17.6316 6.27093C18.4143 6.12521 19.1652 5.83896 19.8316 5.44862C19.5724 6.23971 19.0277 6.90588 18.3085 7.32745C19.0066 7.25458 19.6835 7.06202 20.3075 6.79659C19.8369 7.47838 19.2446 8.0821 18.5676 8.56612Z" fill="white"/>
</svg>
